STARTFONT 2.1
COMMENT
COMMENT Converted from OpenType font "Manrope-ExtraLight.otf" by "otf2bdf 3.0".
COMMENT
FONT -FreeType-Manrope ExtraLight-Medium-R-Normal--21-150-100-100-P-92-ISO10646-1
SIZE 15 100 100
FONTBOUNDINGBOX 19 25 0 -5
STARTPROPERTIES 19
FOUNDRY "FreeType"
FAMILY_NAME "Manrope ExtraLight"
WEIGHT_NAME "Medium"
SLANT "R"
SETWIDTH_NAME "Normal"
ADD_STYLE_NAME ""
PIXEL_SIZE 21
POINT_SIZE 150
RESOLUTION_X 100
RESOLUTION_Y 100
SPACING "P"
AVERAGE_WIDTH 92
CHARSET_REGISTRY "ISO10646"
CHARSET_ENCODING "1"
FONT_ASCENT 22
FONT_DESCENT 6
COPYRIGHT "Copyright 2019-2021 The Manrope Project Authors (https://github.com/sharanda/manrope)"
_OTF_FONTFILE "Manrope-ExtraLight.otf"
_OTF_PSNAME "Manrope-ExtraLight"
ENDPROPERTIES
CHARS 191
STARTCHAR 0020
ENCODING 32
SWIDTH 192 0
DWIDTH 4 0
BBX 0 0 0 0
BITMAP
ENDCHAR
STARTCHAR 0021
ENCODING 33
SWIDTH 288 0
DWIDTH 6 0
BBX 1 15 2 0
BITMAP
80
80
80
80
80
80
80
80
80
80
80
00
00
00
80
ENDCHAR
STARTCHAR 0022
ENCODING 34
SWIDTH 336 0
DWIDTH 7 0
BBX 4 4 1 11
BITMAP
90
90
90
90
ENDCHAR
STARTCHAR 0023
ENCODING 35
SWIDTH 912 0
DWIDTH 19 0
BBX 17 15 1 0
BITMAP
010800
010800
010800
021000
3FFF80
021000
021000
042000
042000
FFFE00
042000
084000
084000
084000
084000
ENDCHAR
STARTCHAR 0024
ENCODING 36
SWIDTH 576 0
DWIDTH 12 0
BBX 10 19 1 -2
BITMAP
0800
0800
3E00
4180
8080
8040
8000
4000
3000
0E00
0180
0040
0040
8040
8040
4080
3F00
0800
0800
ENDCHAR
STARTCHAR 0025
ENCODING 37
SWIDTH 912 0
DWIDTH 19 0
BBX 17 15 1 0
BITMAP
3C0100
420200
810400
810800
811000
422000
3C4000
008000
011E00
022100
044100
084080
104100
202100
401E00
ENDCHAR
STARTCHAR 0026
ENCODING 38
SWIDTH 624 0
DWIDTH 13 0
BBX 12 15 1 0
BITMAP
1E00
2180
4000
4000
4000
4000
2000
3800
4440
8240
8140
80C0
8040
40A0
3F10
ENDCHAR
STARTCHAR 0027
ENCODING 39
SWIDTH 192 0
DWIDTH 4 0
BBX 1 4 1 11
BITMAP
80
80
80
80
ENDCHAR
STARTCHAR 0028
ENCODING 40
SWIDTH 432 0
DWIDTH 9 0
BBX 5 20 3 -4
BITMAP
18
10
20
20
40
40
80
80
80
80
80
80
80
80
80
40
40
20
20
10
ENDCHAR
STARTCHAR 0029
ENCODING 41
SWIDTH 432 0
DWIDTH 9 0
BBX 5 21 1 -4
BITMAP
80
40
40
20
20
10
10
10
10
08
08
08
10
10
10
10
20
20
40
40
80
ENDCHAR
STARTCHAR 002A
ENCODING 42
SWIDTH 432 0
DWIDTH 9 0
BBX 6 6 1 9
BITMAP
20
20
FC
30
48
48
ENDCHAR
STARTCHAR 002B
ENCODING 43
SWIDTH 576 0
DWIDTH 12 0
BBX 10 9 1 3
BITMAP
0800
0800
0800
0800
FFC0
0800
0800
0800
0800
ENDCHAR
STARTCHAR 002C
ENCODING 44
SWIDTH 240 0
DWIDTH 5 0
BBX 2 4 1 -2
BITMAP
C0
C0
40
80
ENDCHAR
STARTCHAR 002D
ENCODING 45
SWIDTH 432 0
DWIDTH 9 0
BBX 7 1 1 6
BITMAP
FE
ENDCHAR
STARTCHAR 002E
ENCODING 46
SWIDTH 240 0
DWIDTH 5 0
BBX 1 1 2 0
BITMAP
80
ENDCHAR
STARTCHAR 002F
ENCODING 47
SWIDTH 336 0
DWIDTH 7 0
BBX 5 15 1 0
BITMAP
08
08
08
10
10
10
20
20
20
20
40
40
40
40
80
ENDCHAR
STARTCHAR 0030
ENCODING 48
SWIDTH 576 0
DWIDTH 12 0
BBX 10 15 1 0
BITMAP
1E00
2100
4080
8080
8040
8040
8040
8040
8040
8040
8040
8080
4080
2100
1E00
ENDCHAR
STARTCHAR 0031
ENCODING 49
SWIDTH 336 0
DWIDTH 7 0
BBX 4 15 1 0
BITMAP
30
50
90
10
10
10
10
10
10
10
10
10
10
10
10
ENDCHAR
STARTCHAR 0032
ENCODING 50
SWIDTH 576 0
DWIDTH 12 0
BBX 9 15 1 0
BITMAP
1E00
6100
4080
8080
8080
0080
0080
0180
0300
0600
0800
1000
2000
4000
FF80
ENDCHAR
STARTCHAR 0033
ENCODING 51
SWIDTH 528 0
DWIDTH 11 0
BBX 9 15 1 0
BITMAP
FF80
0100
0200
0400
0800
1000
3E00
0300
0100
0080
0080
0080
8100
4100
3E00
ENDCHAR
STARTCHAR 0034
ENCODING 52
SWIDTH 576 0
DWIDTH 12 0
BBX 10 15 1 0
BITMAP
0400
0800
0800
0800
1000
1000
2100
2100
4100
4100
8100
FFC0
0100
0100
0100
ENDCHAR
STARTCHAR 0035
ENCODING 53
SWIDTH 576 0
DWIDTH 12 0
BBX 10 15 1 0
BITMAP
7F80
4000
4000
4000
8000
9E00
E100
C080
0040
0040
0040
8040
4080
6100
1E00
ENDCHAR
STARTCHAR 0036
ENCODING 54
SWIDTH 624 0
DWIDTH 13 0
BBX 10 15 1 0
BITMAP
1F00
2080
4000
4000
8000
8E00
B180
C040
C040
8040
8040
4040
4040
2080
1F00
ENDCHAR
STARTCHAR 0037
ENCODING 55
SWIDTH 480 0
DWIDTH 10 0
BBX 8 15 1 0
BITMAP
FF
01
02
02
02
04
04
08
08
10
10
10
20
20
40
ENDCHAR
STARTCHAR 0038
ENCODING 56
SWIDTH 576 0
DWIDTH 12 0
BBX 9 15 1 0
BITMAP
1E00
6100
4080
4080
4080
4080
6100
3E00
4100
8080
8080
8080
8080
4180
3E00
ENDCHAR
STARTCHAR 0039
ENCODING 57
SWIDTH 624 0
DWIDTH 13 0
BBX 10 15 1 0
BITMAP
1F00
2080
4040
4040
8040
8040
4040
4040
21C0
1E40
0040
0040
4040
2080
1F00
ENDCHAR
STARTCHAR 003A
ENCODING 58
SWIDTH 288 0
DWIDTH 6 0
BBX 2 7 2 2
BITMAP
C0
00
00
00
00
00
C0
ENDCHAR
STARTCHAR 003B
ENCODING 59
SWIDTH 288 0
DWIDTH 6 0
BBX 2 14 2 -2
BITMAP
C0
00
00
00
00
00
00
00
00
00
C0
C0
40
80
ENDCHAR
STARTCHAR 003C
ENCODING 60
SWIDTH 576 0
DWIDTH 12 0
BBX 5 9 3 2
BITMAP
08
10
20
40
80
40
20
10
08
ENDCHAR
STARTCHAR 003D
ENCODING 61
SWIDTH 768 0
DWIDTH 16 0
BBX 11 5 2 5
BITMAP
FFE0
0000
0000
0000
FFE0
ENDCHAR
STARTCHAR 003E
ENCODING 62
SWIDTH 576 0
DWIDTH 12 0
BBX 5 9 4 2
BITMAP
80
40
20
10
08
08
10
20
40
ENDCHAR
STARTCHAR 003F
ENCODING 63
SWIDTH 528 0
DWIDTH 11 0
BBX 8 15 1 0
BITMAP
3E
43
81
81
01
01
02
04
08
10
00
00
00
00
10
ENDCHAR
STARTCHAR 0040
ENCODING 64
SWIDTH 912 0
DWIDTH 19 0
BBX 15 16 2 -2
BITMAP
07C0
1830
2008
4004
4004
8002
87C2
8442
8842
8842
84C4
833C
4000
2000
1810
07E0
ENDCHAR
STARTCHAR 0041
ENCODING 65
SWIDTH 624 0
DWIDTH 13 0
BBX 11 15 1 0
BITMAP
0400
0C00
0A00
0A00
1200
1100
2100
2080
2080
4080
7FC0
4040
8040
8020
8020
ENDCHAR
STARTCHAR 0042
ENCODING 66
SWIDTH 624 0
DWIDTH 13 0
BBX 11 15 1 0
BITMAP
FF00
8080
8040
8040
8040
8040
8080
FF80
8040
8060
8020
8020
8020
8040
FF80
ENDCHAR
STARTCHAR 0043
ENCODING 67
SWIDTH 720 0
DWIDTH 15 0
BBX 13 15 1 0
BITMAP
0F80
3060
4030
C010
8008
8000
8000
8000
8000
8000
8008
8010
4030
3060
0F80
ENDCHAR
STARTCHAR 0044
ENCODING 68
SWIDTH 672 0
DWIDTH 14 0
BBX 12 15 1 0
BITMAP
FF00
80C0
8060
8020
8020
8010
8010
8010
8010
8010
8020
8020
8060
80C0
FF00
ENDCHAR
STARTCHAR 0045
ENCODING 69
SWIDTH 576 0
DWIDTH 12 0
BBX 10 15 1 0
BITMAP
FFC0
8000
8000
8000
8000
8000
8000
FF00
8000
8000
8000
8000
8000
8000
FFC0
ENDCHAR
STARTCHAR 0046
ENCODING 70
SWIDTH 480 0
DWIDTH 10 0
BBX 9 15 1 0
BITMAP
FF80
8000
8000
8000
8000
8000
8000
FF00
8000
8000
8000
8000
8000
8000
8000
ENDCHAR
STARTCHAR 0047
ENCODING 71
SWIDTH 672 0
DWIDTH 14 0
BBX 13 15 1 0
BITMAP
1F80
2060
4030
8010
8000
8000
8000
80F8
8008
8008
8010
C010
4030
3060
0F80
ENDCHAR
STARTCHAR 0048
ENCODING 72
SWIDTH 672 0
DWIDTH 14 0
BBX 11 15 1 0
BITMAP
8020
8020
8020
8020
8020
8020
8020
FFE0
8020
8020
8020
8020
8020
8020
8020
ENDCHAR
STARTCHAR 0049
ENCODING 73
SWIDTH 192 0
DWIDTH 4 0
BBX 1 15 2 0
BITMAP
80
80
80
80
80
80
80
80
80
80
80
80
80
80
80
ENDCHAR
STARTCHAR 004A
ENCODING 74
SWIDTH 432 0
DWIDTH 9 0
BBX 7 15 0 0
BITMAP
02
02
02
02
02
02
02
02
02
02
02
02
82
42
3C
ENDCHAR
STARTCHAR 004B
ENCODING 75
SWIDTH 576 0
DWIDTH 12 0
BBX 10 15 1 0
BITMAP
8080
8100
8200
8400
8800
9000
A000
A000
9000
8800
8400
8200
8100
8080
8040
ENDCHAR
STARTCHAR 004C
ENCODING 76
SWIDTH 480 0
DWIDTH 10 0
BBX 8 15 2 0
BITMAP
80
80
80
80
80
80
80
80
80
80
80
80
80
80
FF
ENDCHAR
STARTCHAR 004D
ENCODING 77
SWIDTH 816 0
DWIDTH 17 0
BBX 15 15 1 0
BITMAP
C002
C006
C006
A00A
A00A
9012
9012
8812
8822
8422
8442
8242
8282
8282
8102
ENDCHAR
STARTCHAR 004E
ENCODING 78
SWIDTH 672 0
DWIDTH 14 0
BBX 11 15 1 0
BITMAP
C020
C020
A020
9020
9020
8820
8420
8420
8220
8120
8120
80A0
8060
8060
8020
ENDCHAR
STARTCHAR 004F
ENCODING 79
SWIDTH 720 0
DWIDTH 15 0
BBX 13 15 1 0
BITMAP
0F80
3060
4030
C010
8008
8008
8008
8008
8008
8008
8008
8010
4030
3060
0F80
ENDCHAR
STARTCHAR 0050
ENCODING 80
SWIDTH 576 0
DWIDTH 12 0
BBX 10 15 1 0
BITMAP
FF00
8080
8040
8040
8040
8040
8040
8080
FF00
8000
8000
8000
8000
8000
8000
ENDCHAR
STARTCHAR 0051
ENCODING 81
SWIDTH 720 0
DWIDTH 15 0
BBX 13 15 1 0
BITMAP
0F80
3060
4030
C010
8008
8008
8008
8008
8008
8008
8008
8050
4030
3070
0F88
ENDCHAR
STARTCHAR 0052
ENCODING 82
SWIDTH 624 0
DWIDTH 13 0
BBX 11 15 1 0
BITMAP
FF00
8080
8040
8040
8040
8040
8040
8080
FF00
8100
8080
8080
8040
8040
8020
ENDCHAR
STARTCHAR 0053
ENCODING 83
SWIDTH 576 0
DWIDTH 12 0
BBX 11 15 1 0
BITMAP
1F00
6080
C040
8040
8000
4000
3000
0F00
00C0
0040
0020
8020
8040
60C0
1F00
ENDCHAR
STARTCHAR 0054
ENCODING 84
SWIDTH 576 0
DWIDTH 12 0
BBX 12 15 0 0
BITMAP
FFF0
0200
0200
0200
0200
0200
0200
0200
0200
0200
0200
0200
0200
0200
0200
ENDCHAR
STARTCHAR 0055
ENCODING 85
SWIDTH 672 0
DWIDTH 14 0
BBX 12 15 1 0
BITMAP
8010
8010
8010
8010
8010
8010
8010
8010
8010
8010
8010
4010
4020
3040
0F80
ENDCHAR
STARTCHAR 0056
ENCODING 86
SWIDTH 576 0
DWIDTH 12 0
BBX 12 15 0 0
BITMAP
8010
4020
4020
4020
2040
2040
2040
1080
1080
1100
0900
0900
0600
0600
0600
ENDCHAR
STARTCHAR 0057
ENCODING 87
SWIDTH 912 0
DWIDTH 19 0
BBX 18 15 0 0
BITMAP
804040
404040
40A040
40A040
20A080
212080
211080
211100
121100
120900
120900
0A0A00
0C0600
0C0600
040400
ENDCHAR
STARTCHAR 0058
ENCODING 88
SWIDTH 576 0
DWIDTH 12 0
BBX 10 15 1 0
BITMAP
8040
8040
4080
2100
2200
1200
0C00
0C00
0C00
1200
2100
2100
4080
8040
8040
ENDCHAR
STARTCHAR 0059
ENCODING 89
SWIDTH 528 0
DWIDTH 11 0
BBX 11 15 0 0
BITMAP
8020
4040
4080
2080
1100
1100
0A00
0C00
0400
0400
0400
0400
0400
0400
0400
ENDCHAR
STARTCHAR 005A
ENCODING 90
SWIDTH 576 0
DWIDTH 12 0
BBX 10 15 1 0
BITMAP
FFC0
0080
0080
0100
0200
0200
0400
0400
0800
1000
1000
2000
4000
4000
FFC0
ENDCHAR
STARTCHAR 005B
ENCODING 91
SWIDTH 384 0
DWIDTH 8 0
BBX 3 23 3 -5
BITMAP
E0
80
80
80
80
80
80
80
80
80
80
80
80
80
80
80
80
80
80
80
80
80
E0
ENDCHAR
STARTCHAR 005C
ENCODING 92
SWIDTH 336 0
DWIDTH 7 0
BBX 5 15 1 0
BITMAP
80
40
40
40
40
20
20
20
20
10
10
10
08
08
08
ENDCHAR
STARTCHAR 005D
ENCODING 93
SWIDTH 384 0
DWIDTH 8 0
BBX 3 23 2 -5
BITMAP
E0
20
20
20
20
20
20
20
20
20
20
20
20
20
20
20
20
20
20
20
20
20
E0
ENDCHAR
STARTCHAR 005E
ENCODING 94
SWIDTH 672 0
DWIDTH 14 0
BBX 10 5 2 10
BITMAP
0C00
1200
2100
4080
8040
ENDCHAR
STARTCHAR 005F
ENCODING 95
SWIDTH 672 0
DWIDTH 14 0
BBX 14 1 0 -2
BITMAP
FFFC
ENDCHAR
STARTCHAR 0060
ENCODING 96
SWIDTH 480 0
DWIDTH 10 0
BBX 1 3 4 17
BITMAP
80
80
80
ENDCHAR
STARTCHAR 0061
ENCODING 97
SWIDTH 528 0
DWIDTH 11 0
BBX 9 12 1 0
BITMAP
3E00
6100
4080
0080
0080
0F80
7080
8080
8080
8180
C380
7C80
ENDCHAR
STARTCHAR 0062
ENCODING 98
SWIDTH 576 0
DWIDTH 12 0
BBX 10 15 1 0
BITMAP
8000
8000
8000
9F00
A180
C080
C040
8040
8040
8040
8040
C040
C080
A180
9E00
ENDCHAR
STARTCHAR 0063
ENCODING 99
SWIDTH 528 0
DWIDTH 11 0
BBX 9 12 1 0
BITMAP
1E00
6180
4080
8000
8000
8000
8000
8000
8000
4080
6180
1E00
ENDCHAR
STARTCHAR 0064
ENCODING 100
SWIDTH 576 0
DWIDTH 12 0
BBX 10 15 1 0
BITMAP
0040
0040
0040
3E40
6140
40C0
80C0
8040
8040
8040
8040
80C0
40C0
6140
1E40
ENDCHAR
STARTCHAR 0065
ENCODING 101
SWIDTH 576 0
DWIDTH 12 0
BBX 10 12 1 0
BITMAP
1E00
6180
4080
8040
8040
FFC0
8000
8000
8000
40C0
6180
1E00
ENDCHAR
STARTCHAR 0066
ENCODING 102
SWIDTH 336 0
DWIDTH 7 0
BBX 6 15 1 0
BITMAP
1C
20
20
FC
20
20
20
20
20
20
20
20
20
20
20
ENDCHAR
STARTCHAR 0067
ENCODING 103
SWIDTH 576 0
DWIDTH 12 0
BBX 10 17 1 -5
BITMAP
3E40
6140
40C0
80C0
8040
8040
8040
8040
80C0
40C0
6140
1E40
0080
0080
8080
4180
3E00
ENDCHAR
STARTCHAR 0068
ENCODING 104
SWIDTH 576 0
DWIDTH 12 0
BBX 10 15 1 0
BITMAP
8000
8000
8000
9E00
A100
C080
C080
8040
8040
8040
8040
8040
8040
8040
8040
ENDCHAR
STARTCHAR 0069
ENCODING 105
SWIDTH 192 0
DWIDTH 4 0
BBX 1 15 2 0
BITMAP
80
00
00
80
80
80
80
80
80
80
80
80
80
80
80
ENDCHAR
STARTCHAR 006A
ENCODING 106
SWIDTH 240 0
DWIDTH 5 0
BBX 3 20 0 -5
BITMAP
20
00
00
20
20
20
20
20
20
20
20
20
20
20
20
20
20
20
20
C0
ENDCHAR
STARTCHAR 006B
ENCODING 107
SWIDTH 480 0
DWIDTH 10 0
BBX 9 15 1 0
BITMAP
8000
8000
8000
8300
8600
8400
8800
9000
A000
E000
9000
8800
8400
8200
8180
ENDCHAR
STARTCHAR 006C
ENCODING 108
SWIDTH 192 0
DWIDTH 4 0
BBX 1 15 2 0
BITMAP
80
80
80
80
80
80
80
80
80
80
80
80
80
80
80
ENDCHAR
STARTCHAR 006D
ENCODING 109
SWIDTH 816 0
DWIDTH 17 0
BBX 15 12 1 0
BITMAP
BC78
C284
C102
8102
8102
8102
8102
8102
8102
8102
8102
8102
ENDCHAR
STARTCHAR 006E
ENCODING 110
SWIDTH 576 0
DWIDTH 12 0
BBX 10 12 1 0
BITMAP
9E00
A100
C080
C080
8040
8040
8040
8040
8040
8040
8040
8040
ENDCHAR
STARTCHAR 006F
ENCODING 111
SWIDTH 576 0
DWIDTH 12 0
BBX 10 12 1 0
BITMAP
1E00
6180
4080
8040
8040
8040
8040
8040
8040
4080
6180
1E00
ENDCHAR
STARTCHAR 0070
ENCODING 112
SWIDTH 576 0
DWIDTH 12 0
BBX 10 17 1 -5
BITMAP
9F00
A180
C080
C040
8040
8040
8040
8040
C040
C080
A180
9E00
8000
8000
8000
8000
8000
ENDCHAR
STARTCHAR 0071
ENCODING 113
SWIDTH 576 0
DWIDTH 12 0
BBX 10 17 1 -5
BITMAP
3E40
6140
40C0
80C0
8040
8040
8040
8040
80C0
40C0
6140
1E40
0040
0040
0040
0040
0040
ENDCHAR
STARTCHAR 0072
ENCODING 114
SWIDTH 336 0
DWIDTH 7 0
BBX 5 12 1 0
BITMAP
98
A0
C0
C0
80
80
80
80
80
80
80
80
ENDCHAR
STARTCHAR 0073
ENCODING 115
SWIDTH 528 0
DWIDTH 11 0
BBX 9 12 1 0
BITMAP
3E00
4100
8080
8000
4000
3800
0700
0080
0080
8080
4100
3E00
ENDCHAR
STARTCHAR 0074
ENCODING 116
SWIDTH 384 0
DWIDTH 8 0
BBX 7 15 0 0
BITMAP
10
10
10
FE
10
10
10
10
10
10
10
10
10
10
0E
ENDCHAR
STARTCHAR 0075
ENCODING 117
SWIDTH 576 0
DWIDTH 12 0
BBX 9 12 1 0
BITMAP
8080
8080
8080
8080
8080
8080
8080
8080
8080
4080
6180
1E80
ENDCHAR
STARTCHAR 0076
ENCODING 118
SWIDTH 480 0
DWIDTH 10 0
BBX 9 12 0 0
BITMAP
8080
4080
4080
2100
2100
2100
1200
1200
1200
0C00
0C00
0C00
ENDCHAR
STARTCHAR 0077
ENCODING 119
SWIDTH 768 0
DWIDTH 16 0
BBX 15 12 0 0
BITMAP
8102
4182
4284
4284
2284
2244
2448
2448
1428
1830
1830
0810
ENDCHAR
STARTCHAR 0078
ENCODING 120
SWIDTH 528 0
DWIDTH 11 0
BBX 9 12 1 0
BITMAP
8080
C100
4200
2200
1400
1800
1800
1400
2200
4300
8100
8080
ENDCHAR
STARTCHAR 0079
ENCODING 121
SWIDTH 528 0
DWIDTH 11 0
BBX 9 16 1 -4
BITMAP
8080
8100
8100
4100
4200
2200
2200
2400
1400
1400
0800
0800
1000
1000
1000
2000
ENDCHAR
STARTCHAR 007A
ENCODING 122
SWIDTH 528 0
DWIDTH 11 0
BBX 9 12 1 0
BITMAP
FF80
0100
0300
0200
0400
0800
1000
1000
2000
4000
8000
FF80
ENDCHAR
STARTCHAR 007B
ENCODING 123
SWIDTH 384 0
DWIDTH 8 0
BBX 4 23 3 -5
BITMAP
30
40
40
40
40
40
40
40
40
40
C0
80
40
40
40
40
40
40
40
40
40
40
30
ENDCHAR
STARTCHAR 007C
ENCODING 124
SWIDTH 240 0
DWIDTH 5 0
BBX 1 15 2 0
BITMAP
80
80
80
80
80
80
80
80
80
80
80
80
80
80
80
ENDCHAR
STARTCHAR 007D
ENCODING 125
SWIDTH 384 0
DWIDTH 8 0
BBX 4 23 1 -5
BITMAP
C0
20
20
20
20
20
20
20
20
20
10
10
10
20
20
20
20
20
20
20
20
20
C0
ENDCHAR
STARTCHAR 007E
ENCODING 126
SWIDTH 624 0
DWIDTH 13 0
BBX 8 3 3 5
BITMAP
E3
BA
8E
ENDCHAR
STARTCHAR 00A0
ENCODING 160
SWIDTH 192 0
DWIDTH 4 0
BBX 0 0 0 0
BITMAP
ENDCHAR
STARTCHAR 00A1
ENCODING 161
SWIDTH 288 0
DWIDTH 6 0
BBX 1 15 2 -3
BITMAP
80
00
00
00
80
80
80
80
80
80
80
80
80
80
80
ENDCHAR
STARTCHAR 00A2
ENCODING 162
SWIDTH 528 0
DWIDTH 11 0
BBX 9 15 1 -1
BITMAP
0800
0800
1E00
6180
4080
8000
8000
8000
8000
8000
8000
4080
6180
1E00
0800
ENDCHAR
STARTCHAR 00A3
ENCODING 163
SWIDTH 576 0
DWIDTH 12 0
BBX 10 15 1 0
BITMAP
0F00
1080
1040
1040
1000
1000
1000
FF00
1000
1000
1000
1000
1000
3000
FFC0
ENDCHAR
STARTCHAR 00A4
ENCODING 164
SWIDTH 624 0
DWIDTH 13 0
BBX 11 11 1 2
BITMAP
9F20
60C0
4040
8020
8020
8020
8020
8020
4040
60C0
9F20
ENDCHAR
STARTCHAR 00A5
ENCODING 165
SWIDTH 528 0
DWIDTH 11 0
BBX 11 15 0 0
BITMAP
8020
4040
4080
2080
1100
1100
0A00
0A00
0400
3F80
0400
0400
3F80
0400
0400
ENDCHAR
STARTCHAR 00A6
ENCODING 166
SWIDTH 240 0
DWIDTH 5 0
BBX 1 18 2 -3
BITMAP
80
80
80
80
80
80
80
00
00
00
80
80
80
80
80
80
80
80
ENDCHAR
STARTCHAR 00A7
ENCODING 167
SWIDTH 528 0
DWIDTH 11 0
BBX 9 17 1 -3
BITMAP
3C00
4300
8100
8000
4000
3800
4700
8080
8080
C080
3100
0E00
0100
0080
8080
4100
3E00
ENDCHAR
STARTCHAR 00A8
ENCODING 168
SWIDTH 480 0
DWIDTH 10 0
BBX 6 1 2 18
BITMAP
CC
ENDCHAR
STARTCHAR 00A9
ENCODING 169
SWIDTH 768 0
DWIDTH 16 0
BBX 14 15 1 0
BITMAP
0F80
1060
2010
4788
8848
9044
9004
9004
9004
9004
8848
4788
6010
3060
0F80
ENDCHAR
STARTCHAR 00AA
ENCODING 170
SWIDTH 288 0
DWIDTH 6 0
BBX 5 6 1 6
BITMAP
70
88
18
E8
88
F8
ENDCHAR
STARTCHAR 00AB
ENCODING 171
SWIDTH 480 0
DWIDTH 10 0
BBX 7 9 2 1
BITMAP
12
24
48
88
90
C8
48
24
12
ENDCHAR
STARTCHAR 00AC
ENCODING 172
SWIDTH 624 0
DWIDTH 13 0
BBX 10 4 1 4
BITMAP
FFC0
0040
0040
0040
ENDCHAR
STARTCHAR 00AD
ENCODING 173
SWIDTH 432 0
DWIDTH 9 0
BBX 7 1 1 6
BITMAP
FE
ENDCHAR
STARTCHAR 00AE
ENCODING 174
SWIDTH 624 0
DWIDTH 13 0
BBX 10 10 1 6
BITMAP
1E00
2180
4C80
5240
9240
8E40
5240
4080
2180
1E00
ENDCHAR
STARTCHAR 00AF
ENCODING 175
SWIDTH 480 0
DWIDTH 10 0
BBX 6 1 2 17
BITMAP
FC
ENDCHAR
STARTCHAR 00B0
ENCODING 176
SWIDTH 432 0
DWIDTH 9 0
BBX 7 7 1 8
BITMAP
38
C4
82
82
82
C4
78
ENDCHAR
STARTCHAR 00B1
ENCODING 177
SWIDTH 624 0
DWIDTH 13 0
BBX 10 10 1 2
BITMAP
0400
0400
0400
FFC0
0400
0400
0400
0000
0000
FFC0
ENDCHAR
STARTCHAR 00B2
ENCODING 178
SWIDTH 384 0
DWIDTH 8 0
BBX 6 10 1 5
BITMAP
78
C4
84
04
04
08
10
20
40
FC
ENDCHAR
STARTCHAR 00B3
ENCODING 179
SWIDTH 384 0
DWIDTH 8 0
BBX 6 9 1 6
BITMAP
FC
08
30
70
08
04
04
88
70
ENDCHAR
STARTCHAR 00B4
ENCODING 180
SWIDTH 480 0
DWIDTH 10 0
BBX 2 3 4 17
BITMAP
40
80
80
ENDCHAR
STARTCHAR 00B5
ENCODING 181
SWIDTH 576 0
DWIDTH 12 0
BBX 10 17 1 -5
BITMAP
8040
8040
8040
8040
8040
8040
8040
8040
C040
C0C0
A140
9E40
8000
8000
8000
8000
8000
ENDCHAR
STARTCHAR 00B6
ENCODING 182
SWIDTH 576 0
DWIDTH 12 0
BBX 8 18 2 -3
BITMAP
3D
7D
FD
FD
FD
FD
FD
7D
3D
05
05
05
05
05
05
05
05
05
ENDCHAR
STARTCHAR 00B7
ENCODING 183
SWIDTH 192 0
DWIDTH 4 0
BBX 2 2 1 6
BITMAP
40
C0
ENDCHAR
STARTCHAR 00B8
ENCODING 184
SWIDTH 384 0
DWIDTH 8 0
BBX 3 5 3 -5
BITMAP
40
80
40
20
C0
ENDCHAR
STARTCHAR 00B9
ENCODING 185
SWIDTH 288 0
DWIDTH 6 0
BBX 3 9 1 6
BITMAP
60
A0
20
20
20
20
20
20
20
ENDCHAR
STARTCHAR 00BA
ENCODING 186
SWIDTH 336 0
DWIDTH 7 0
BBX 5 6 1 6
BITMAP
70
88
88
88
88
70
ENDCHAR
STARTCHAR 00BB
ENCODING 187
SWIDTH 480 0
DWIDTH 10 0
BBX 8 9 1 1
BITMAP
88
48
24
12
09
12
24
48
08
ENDCHAR
STARTCHAR 00BC
ENCODING 188
SWIDTH 912 0
DWIDTH 19 0
BBX 16 15 1 0
BITMAP
6008
A018
2010
2020
2040
2080
2188
2108
2210
0412
0C22
1822
103F
2002
4002
ENDCHAR
STARTCHAR 00BD
ENCODING 189
SWIDTH 864 0
DWIDTH 18 0
BBX 16 15 1 0
BITMAP
6008
A018
2010
2020
2040
208E
2191
2121
2201
0401
0C02
1804
1008
2010
403F
ENDCHAR
STARTCHAR 00BE
ENCODING 190
SWIDTH 960 0
DWIDTH 20 0
BBX 17 15 1 0
BITMAP
FC0200
080400
300800
701800
081000
042200
044200
888400
718400
010900
020900
041100
081F80
180100
100100
ENDCHAR
STARTCHAR 00BF
ENCODING 191
SWIDTH 528 0
DWIDTH 11 0
BBX 8 16 1 -4
BITMAP
08
08
00
00
08
08
08
10
20
40
80
80
81
81
43
3E
ENDCHAR
STARTCHAR 00C0
ENCODING 192
SWIDTH 624 0
DWIDTH 13 0
BBX 11 20 1 0
BITMAP
0800
0800
0400
0000
0000
0400
0C00
0A00
0A00
1200
1100
2100
2080
2080
4080
7FC0
4040
8040
8020
8020
ENDCHAR
STARTCHAR 00C1
ENCODING 193
SWIDTH 624 0
DWIDTH 13 0
BBX 11 20 1 0
BITMAP
0200
0400
0400
0000
0000
0400
0C00
0A00
0A00
1200
1100
2100
2080
2080
4080
7FC0
4040
8040
8020
8020
ENDCHAR
STARTCHAR 00C2
ENCODING 194
SWIDTH 624 0
DWIDTH 13 0
BBX 11 20 1 0
BITMAP
0400
0A00
1100
0000
0000
0400
0C00
0A00
0A00
1200
1100
2100
2080
2080
4080
7FC0
4040
8040
8020
8020
ENDCHAR
STARTCHAR 00C3
ENCODING 195
SWIDTH 624 0
DWIDTH 13 0
BBX 11 20 1 0
BITMAP
1900
2500
0300
0000
0000
0400
0C00
0A00
0A00
1200
1100
2100
2080
2080
4080
7FC0
4040
8040
8020
8020
ENDCHAR
STARTCHAR 00C4
ENCODING 196
SWIDTH 624 0
DWIDTH 13 0
BBX 11 19 1 0
BITMAP
1100
0000
0000
0000
0400
0C00
0A00
0A00
1200
1100
2100
2080
2080
4080
7FC0
4040
8040
8020
8020
ENDCHAR
STARTCHAR 00C5
ENCODING 197
SWIDTH 624 0
DWIDTH 13 0
BBX 11 20 1 0
BITMAP
0E00
1200
1200
0E00
0000
0400
0C00
0A00
0A00
1200
1100
2100
2080
2080
4080
7FC0
4040
8040
8020
8020
ENDCHAR
STARTCHAR 00C6
ENCODING 198
SWIDTH 912 0
DWIDTH 19 0
BBX 17 15 1 0
BITMAP
07FF80
088000
088000
088000
108000
108000
208000
20FF00
208000
408000
7F8000
408000
808000
808000
80FF80
ENDCHAR
STARTCHAR 00C7
ENCODING 199
SWIDTH 720 0
DWIDTH 15 0
BBX 13 20 1 -5
BITMAP
0F80
3060
4030
C010
8008
8000
8000
8000
8000
8000
8008
8010
4030
3060
0F80
0200
0200
0100
0100
0600
ENDCHAR
STARTCHAR 00C8
ENCODING 200
SWIDTH 576 0
DWIDTH 12 0
BBX 10 20 1 0
BITMAP
0800
0800
0400
0000
0000
FFC0
8000
8000
8000
8000
8000
8000
FF00
8000
8000
8000
8000
8000
8000
FFC0
ENDCHAR
STARTCHAR 00C9
ENCODING 201
SWIDTH 576 0
DWIDTH 12 0
BBX 10 20 1 0
BITMAP
0200
0400
0400
0000
0000
FFC0
8000
8000
8000
8000
8000
8000
FF00
8000
8000
8000
8000
8000
8000
FFC0
ENDCHAR
STARTCHAR 00CA
ENCODING 202
SWIDTH 576 0
DWIDTH 12 0
BBX 10 20 1 0
BITMAP
0C00
0C00
1200
0000
0000
FFC0
8000
8000
8000
8000
8000
8000
FF00
8000
8000
8000
8000
8000
8000
FFC0
ENDCHAR
STARTCHAR 00CB
ENCODING 203
SWIDTH 576 0
DWIDTH 12 0
BBX 10 19 1 0
BITMAP
2200
0000
0000
0000
FFC0
8000
8000
8000
8000
8000
8000
FF00
8000
8000
8000
8000
8000
8000
FFC0
ENDCHAR
STARTCHAR 00CC
ENCODING 204
SWIDTH 192 0
DWIDTH 4 0
BBX 2 20 1 0
BITMAP
80
80
80
00
00
40
40
40
40
40
40
40
40
40
40
40
40
40
40
40
ENDCHAR
STARTCHAR 00CD
ENCODING 205
SWIDTH 192 0
DWIDTH 4 0
BBX 2 20 2 0
BITMAP
40
80
80
00
00
80
80
80
80
80
80
80
80
80
80
80
80
80
80
80
ENDCHAR
STARTCHAR 00CE
ENCODING 206
SWIDTH 192 0
DWIDTH 4 0
BBX 4 20 0 0
BITMAP
60
70
90
00
00
20
20
20
20
20
20
20
20
20
20
20
20
20
20
20
ENDCHAR
STARTCHAR 00CF
ENCODING 207
SWIDTH 192 0
DWIDTH 4 0
BBX 5 19 0 0
BITMAP
98
00
00
00
20
20
20
20
20
20
20
20
20
20
20
20
20
20
20
ENDCHAR
STARTCHAR 00D0
ENCODING 208
SWIDTH 624 0
DWIDTH 13 0
BBX 13 15 0 0
BITMAP
7F80
4040
4020
4010
4010
4010
4010
FC08
4010
4010
4010
4010
4020
4040
7F80
ENDCHAR
STARTCHAR 00D1
ENCODING 209
SWIDTH 672 0
DWIDTH 14 0
BBX 11 19 1 0
BITMAP
0C80
1280
1180
0000
C020
C020
A020
9020
9020
8820
8420
8420
8220
8120
8120
80A0
8060
8060
8020
ENDCHAR
STARTCHAR 00D2
ENCODING 210
SWIDTH 720 0
DWIDTH 15 0
BBX 13 19 1 0
BITMAP
0400
0400
0200
0000
0F80
3060
4030
C010
8008
8008
8008
8008
8008
8008
8008
8010
4030
3060
0F80
ENDCHAR
STARTCHAR 00D3
ENCODING 211
SWIDTH 720 0
DWIDTH 15 0
BBX 13 19 1 0
BITMAP
0100
0200
0000
0000
0F80
3060
4030
C010
8008
8008
8008
8008
8008
8008
8008
8010
4030
3060
0F80
ENDCHAR
STARTCHAR 00D4
ENCODING 212
SWIDTH 720 0
DWIDTH 15 0
BBX 13 19 1 0
BITMAP
0600
0500
0800
0000
0F80
3060
4030
C010
8008
8008
8008
8008
8008
8008
8008
8010
4030
3060
0F80
ENDCHAR
STARTCHAR 00D5
ENCODING 213
SWIDTH 720 0
DWIDTH 15 0
BBX 13 19 1 0
BITMAP
0C00
0A80
0180
0000
0F80
3060
4030
C010
8008
8008
8008
8008
8008
8008
8008
8010
4030
3060
0F80
ENDCHAR
STARTCHAR 00D6
ENCODING 214
SWIDTH 720 0
DWIDTH 15 0
BBX 13 18 1 0
BITMAP
0880
0000
0000
0F80
3060
4030
C010
8008
8008
8008
8008
8008
8008
8008
8010
4030
3060
0F80
ENDCHAR
STARTCHAR 00D7
ENCODING 215
SWIDTH 480 0
DWIDTH 10 0
BBX 8 7 1 4
BITMAP
81
42
24
18
18
24
42
ENDCHAR
STARTCHAR 00D8
ENCODING 216
SWIDTH 720 0
DWIDTH 15 0
BBX 15 15 0 0
BITMAP
07C2
1834
2018
6018
4024
4044
4084
4104
4204
4404
4804
5008
2018
5830
87C0
ENDCHAR
STARTCHAR 00D9
ENCODING 217
SWIDTH 672 0
DWIDTH 14 0
BBX 12 20 1 0
BITMAP
0400
0400
0200
0000
0000
8010
8010
8010
8010
8010
8010
8010
8010
8010
8010
8010
4010
4020
3040
0F80
ENDCHAR
STARTCHAR 00DA
ENCODING 218
SWIDTH 672 0
DWIDTH 14 0
BBX 12 20 1 0
BITMAP
0200
0200
0200
0000
0000
8010
8010
8010
8010
8010
8010
8010
8010
8010
8010
8010
4010
4020
3040
0F80
ENDCHAR
STARTCHAR 00DB
ENCODING 219
SWIDTH 672 0
DWIDTH 14 0
BBX 12 20 1 0
BITMAP
0200
0500
0900
0000
0000
8010
8010
8010
8010
8010
8010
8010
8010
8010
8010
8010
4010
4020
3040
0F80
ENDCHAR
STARTCHAR 00DC
ENCODING 220
SWIDTH 672 0
DWIDTH 14 0
BBX 12 19 1 0
BITMAP
0980
0000
0000
0000
8010
8010
8010
8010
8010
8010
8010
8010
8010
8010
8010
4010
4020
3040
0F80
ENDCHAR
STARTCHAR 00DD
ENCODING 221
SWIDTH 528 0
DWIDTH 11 0
BBX 11 19 0 1
BITMAP
0400
0400
0000
0000
8020
4040
4080
2080
1100
1100
0A00
0C00
0400
0400
0400
0400
0400
0400
0400
ENDCHAR
STARTCHAR 00DE
ENCODING 222
SWIDTH 576 0
DWIDTH 12 0
BBX 10 15 1 0
BITMAP
8000
8000
8000
FF00
8080
8040
8040
8040
8040
8040
8080
FF00
8000
8000
8000
ENDCHAR
STARTCHAR 00DF
ENCODING 223
SWIDTH 576 0
DWIDTH 12 0
BBX 10 15 1 0
BITMAP
3E00
4300
4100
8100
8100
8100
8600
8F00
8080
80C0
8040
8040
8080
8180
9F00
ENDCHAR
STARTCHAR 00E0
ENCODING 224
SWIDTH 528 0
DWIDTH 11 0
BBX 9 16 1 0
BITMAP
1000
0800
0800
0000
3E00
6100
4080
0080
0080
0F80
7080
8080
8080
8180
C380
7C80
ENDCHAR
STARTCHAR 00E1
ENCODING 225
SWIDTH 528 0
DWIDTH 11 0
BBX 9 16 1 0
BITMAP
0400
0400
0800
0000
3E00
6100
4080
0080
0080
0F80
7080
8080
8080
8180
C380
7C80
ENDCHAR
STARTCHAR 00E2
ENCODING 226
SWIDTH 528 0
DWIDTH 11 0
BBX 9 16 1 0
BITMAP
0C00
1600
2200
0000
3E00
6100
4080
0080
0080
0F80
7080
8080
8080
8180
C380
7C80
ENDCHAR
STARTCHAR 00E3
ENCODING 227
SWIDTH 528 0
DWIDTH 11 0
BBX 9 16 1 0
BITMAP
3100
2900
2600
0000
3E00
6100
4080
0080
0080
0F80
7080
8080
8080
8180
C380
7C80
ENDCHAR
STARTCHAR 00E4
ENCODING 228
SWIDTH 528 0
DWIDTH 11 0
BBX 9 15 1 0
BITMAP
3200
0000
0000
3E00
6100
4080
0080
0080
0F80
7080
8080
8080
8180
C380
7C80
ENDCHAR
STARTCHAR 00E5
ENCODING 229
SWIDTH 528 0
DWIDTH 11 0
BBX 9 17 1 0
BITMAP
1C00
1200
1200
1C00
0000
3E00
6100
4080
0080
0080
0F80
7080
8080
8080
8180
C380
7C80
ENDCHAR
STARTCHAR 00E6
ENCODING 230
SWIDTH 960 0
DWIDTH 20 0
BBX 18 12 1 0
BITMAP
3E1E00
412180
80C080
008040
008040
3FFFC0
C08000
808000
808000
814080
C32180
7C1E00
ENDCHAR
STARTCHAR 00E7
ENCODING 231
SWIDTH 528 0
DWIDTH 11 0
BBX 9 17 1 -5
BITMAP
1E00
6180
4080
8000
8000
8000
8000
8000
8000
4080
6180
1E00
0800
0800
0400
0400
1800
ENDCHAR
STARTCHAR 00E8
ENCODING 232
SWIDTH 576 0
DWIDTH 12 0
BBX 10 16 1 0
BITMAP
0800
0800
0400
0000
1E00
6180
4080
8040
8040
FFC0
8000
8000
8000
40C0
6180
1E00
ENDCHAR
STARTCHAR 00E9
ENCODING 233
SWIDTH 576 0
DWIDTH 12 0
BBX 10 16 1 0
BITMAP
0400
0400
0000
0000
1E00
6180
4080
8040
8040
FFC0
8000
8000
8000
40C0
6180
1E00
ENDCHAR
STARTCHAR 00EA
ENCODING 234
SWIDTH 576 0
DWIDTH 12 0
BBX 10 16 1 0
BITMAP
0C00
1200
0000
0000
1E00
6180
4080
8040
8040
FFC0
8000
8000
8000
40C0
6180
1E00
ENDCHAR
STARTCHAR 00EB
ENCODING 235
SWIDTH 576 0
DWIDTH 12 0
BBX 10 15 1 0
BITMAP
3200
0000
0000
1E00
6180
4080
8040
8040
FFC0
8000
8000
8000
40C0
6180
1E00
ENDCHAR
STARTCHAR 00EC
ENCODING 236
SWIDTH 192 0
DWIDTH 4 0
BBX 2 17 1 0
BITMAP
80
80
80
00
00
40
40
40
40
40
40
40
40
40
40
40
40
ENDCHAR
STARTCHAR 00ED
ENCODING 237
SWIDTH 192 0
DWIDTH 4 0
BBX 2 17 2 0
BITMAP
40
80
80
00
00
80
80
80
80
80
80
80
80
80
80
80
80
ENDCHAR
STARTCHAR 00EE
ENCODING 238
SWIDTH 192 0
DWIDTH 4 0
BBX 4 17 0 0
BITMAP
60
70
90
00
00
20
20
20
20
20
20
20
20
20
20
20
20
ENDCHAR
STARTCHAR 00EF
ENCODING 239
SWIDTH 192 0
DWIDTH 4 0
BBX 5 15 0 0
BITMAP
98
00
00
20
20
20
20
20
20
20
20
20
20
20
20
ENDCHAR
STARTCHAR 00F0
ENCODING 240
SWIDTH 576 0
DWIDTH 12 0
BBX 10 16 1 0
BITMAP
0100
0E00
0700
0480
0080
1E40
61C0
40C0
8040
8040
8040
8040
8040
C080
6180
3E00
ENDCHAR
STARTCHAR 00F1
ENCODING 241
SWIDTH 576 0
DWIDTH 12 0
BBX 10 16 1 0
BITMAP
1100
2D00
2200
0000
9E00
A100
C080
C080
8040
8040
8040
8040
8040
8040
8040
8040
ENDCHAR
STARTCHAR 00F2
ENCODING 242
SWIDTH 576 0
DWIDTH 12 0
BBX 10 16 1 0
BITMAP
0800
0800
0800
0000
1E00
6180
4080
8040
8040
8040
8040
8040
8040
4080
6180
1E00
ENDCHAR
STARTCHAR 00F3
ENCODING 243
SWIDTH 576 0
DWIDTH 12 0
BBX 10 16 1 0
BITMAP
0400
0400
0000
0000
1E00
6180
4080
8040
8040
8040
8040
8040
8040
4080
6180
1E00
ENDCHAR
STARTCHAR 00F4
ENCODING 244
SWIDTH 576 0
DWIDTH 12 0
BBX 10 16 1 0
BITMAP
0C00
1200
0000
0000
1E00
6180
4080
8040
8040
8040
8040
8040
8040
4080
6180
1E00
ENDCHAR
STARTCHAR 00F5
ENCODING 245
SWIDTH 576 0
DWIDTH 12 0
BBX 10 16 1 0
BITMAP
1100
2D00
2200
0000
1E00
6180
4080
8040
8040
8040
8040
8040
8040
4080
6180
1E00
ENDCHAR
STARTCHAR 00F6
ENCODING 246
SWIDTH 576 0
DWIDTH 12 0
BBX 10 15 1 0
BITMAP
3200
0000
0000
1E00
6180
4080
8040
8040
8040
8040
8040
8040
4080
6180
1E00
ENDCHAR
STARTCHAR 00F7
ENCODING 247
SWIDTH 528 0
DWIDTH 11 0
BBX 9 7 1 4
BITMAP
0800
0000
0000
FF80
0000
0000
0800
ENDCHAR
STARTCHAR 00F8
ENCODING 248
SWIDTH 576 0
DWIDTH 12 0
BBX 12 12 0 0
BITMAP
0F10
30E0
2040
40A0
4120
4220
4420
4820
5020
6040
70C0
8F00
ENDCHAR
STARTCHAR 00F9
ENCODING 249
SWIDTH 576 0
DWIDTH 12 0
BBX 9 17 1 0
BITMAP
0800
0800
0800
0000
0000
8080
8080
8080
8080
8080
8080
8080
8080
8080
4080
6180
1E80
ENDCHAR
STARTCHAR 00FA
ENCODING 250
SWIDTH 576 0
DWIDTH 12 0
BBX 9 17 1 0
BITMAP
0400
0400
0400
0000
0000
8080
8080
8080
8080
8080
8080
8080
8080
8080
4080
6180
1E80
ENDCHAR
STARTCHAR 00FB
ENCODING 251
SWIDTH 576 0
DWIDTH 12 0
BBX 9 17 1 0
BITMAP
0800
1400
1200
0000
0000
8080
8080
8080
8080
8080
8080
8080
8080
8080
4080
6180
1E80
ENDCHAR
STARTCHAR 00FC
ENCODING 252
SWIDTH 576 0
DWIDTH 12 0
BBX 9 15 1 0
BITMAP
3200
0000
0000
8080
8080
8080
8080
8080
8080
8080
8080
8080
4080
6180
1E80
ENDCHAR
STARTCHAR 00FD
ENCODING 253
SWIDTH 528 0
DWIDTH 11 0
BBX 9 21 1 -4
BITMAP
0400
0800
0800
0000
0000
8080
8100
8100
4100
4200
2200
2200
2400
1400
1400
0800
0800
1000
1000
1000
2000
ENDCHAR
STARTCHAR 00FE
ENCODING 254
SWIDTH 576 0
DWIDTH 12 0
BBX 10 20 1 -5
BITMAP
8000
8000
8000
9F00
A180
C080
C040
8040
8040
8040
8040
C040
C080
A180
9E00
8000
8000
8000
8000
8000
ENDCHAR
STARTCHAR 00FF
ENCODING 255
SWIDTH 528 0
DWIDTH 11 0
BBX 9 19 1 -4
BITMAP
2200
0000
0000
8080
8100
8100
4100
4200
2200
2200
2400
1400
1400
0800
0800
1000
1000
1000
2000
ENDCHAR
ENDFONT
